Coordinates
version=1
nRows=12
nColumns=42
inDegrees=yes

Units are S.I. units (second, meters, Newtons, ...)
If the header above contains a line with 'inDegrees', this indicates whether rotational values are in degrees (yes) or radians (no).

endheader
time	pelvis_tilt	pelvis_list	pelvis_rotation	pelvis_tx	pelvis_ty	pelvis_tz	hip_flexion_r	hip_adduction_r	hip_rotation_r	knee_angle_r	knee_adduction_r	knee_angle_r_beta	ankle_angle_r	subtalar_angle_r	mtp_angle_r	hip_flexion_l	hip_adduction_l	hip_rotation_l	knee_angle_l	knee_adduction_l	knee_angle_l_beta	ankle_angle_l	subtalar_angle_l	mtp_angle_l	lumbar_extension	lumbar_bending	lumbar_rotation	arm_flex_r	arm_add_r	arm_rot_r	elbow_flex_r	pro_sup_r	wrist_flex_r	wrist_dev_r	arm_flex_l	arm_add_l	arm_rot_l	elbow_flex_l	pro_sup_l	wrist_flex_l	wrist_dev_l
      1.28000000	      9.11699173	      1.13879110	      1.73356654	      0.89662704	      0.84067215	     -0.26823031	    -13.06521884	     -1.14556229	    -11.10531493	      7.74185547	      4.82332910	      0.13512087	     15.86810236	      7.23445130	     -7.50638633	     15.10397122	     -4.24135831	    -10.07382256	     57.75566295	     -0.69821017	      1.00802648	     11.65101005	    -12.22945677	     -7.50638633	    -19.82859034	     -0.97571243	      5.73357769	      1.91263179	    -14.41155305	    -10.05402612	     34.34945492	     90.00000001	      0.00000000	      0.00000000	     -1.53983803	     -9.84072135	    -21.41819761	     34.48729286	     90.00000001	      0.00000000	      0.00000000
      1.29000000	      9.33459249	      1.73786221	      1.10034980	      0.91134235	      0.84094349	     -0.26749674	    -15.15178315	     -1.96918742	    -10.99081877	      6.36759731	      5.32623223	      0.11113554	     16.07638293	      7.68020345	     -7.50607348	     15.61455124	     -3.38339198	    -10.95238506	     54.12084281	     -0.18328621	      0.94458690	     11.37136676	    -12.82827732	     -7.50607348	    -20.01255529	     -1.90872287	      6.70259406	      1.99558876	    -14.72901084	     -9.33106682	     34.89418637	     90.00000001	      0.00000000	      0.00000000	     -1.98576062	     -9.86002572	    -23.75841134	     33.67375813	     90.00000001	      0.00000000	      0.00000000
      1.30000000	      9.17066508	      1.98272138	      0.56201127	      0.92573282	      0.84015246	     -0.26652389	    -16.55696534	     -2.27573768	    -11.17284505	      5.38025101	      5.53201467	      0.09390309	     16.24753342	      8.07405836	     -7.50574950	     16.60759821	     -2.99725118	    -11.74153144	     50.49776916	      0.30968232	      0.88135234	     11.33296114	    -13.29721761	     -7.50574950	    -19.78085307	     -2.47940134	      7.69599064	      2.11495936	    -15.06937251	     -8.68499486	     35.34440081	     90.00000001	      0.00000000	      0.00000000	     -2.48718553	     -9.96561934	    -25.75280683	     33.01065206	     90.00000001	      0.00000000	      0.00000000
      1.31000000	      8.94336176	      2.03151735	      0.03619835	      0.94022903	      0.83877551	     -0.26556524	    -17.79771863	     -2.36128775	    -11.45544148	      4.57228887	      5.67296819	      0.07980150	     16.53058393	      8.70016641	     -7.50552850	     17.54711831	     -2.90154491	    -12.59306735	     46.70576738	      0.78200803	      0.81516942	     11.50662621	    -13.38183111	     -7.50552850	    -19.45359611	     -2.82272732	      8.75014406	      2.22395743	    -15.43830720	     -8.21426363	     35.73063902	     90.00000001	      0.00000000	      0.00000000	     -3.07525583	    -10.14618965	    -27.27579122	     32.35589740	     90.00000001	      0.00000000	      0.00000000
      1.32000000	      8.86115457	      2.12406691	     -0.40311034	      0.95481889	      0.83723782	     -0.26491115	    -19.11475869	     -2.51948359	    -12.06438555	      4.00635738	      5.84389242	      0.06992413	     16.82441773	      9.21051279	     -7.50524842	     18.10155927	     -2.66574700	    -13.53820828	     42.53283242	      1.08546947	      0.74233797	     11.51222054	    -13.23531152	     -7.50524842	    -19.29446995	     -3.15888468	      9.58362040	      2.41160771	    -15.85698819	     -7.56000589	     36.15546780	     90.00000001	      0.00000000	      0.00000000	     -3.64686109	    -10.24670546	    -29.50817422	     31.80773135	     90.00000001	      0.00000000	      0.00000000
      1.33000000	      8.71541678	      2.06578379	     -0.79630930	      0.96943880	      0.83526833	     -0.26432938	    -20.26235484	     -2.49571611	    -12.69696737	      3.63600545	      5.94097902	      0.06346027	     17.18947019	      9.80529577	     -7.50497011	     18.60287189	     -2.61356474	    -14.43500397	     38.25950033	      1.40715609	      0.66775425	     11.69671519	    -12.55843172	     -7.50497011	    -19.06214848	     -3.31355447	     10.38831936	      2.62879727	    -16.29143572	     -6.94815355	     36.52805145	     90.00000001	      0.00000000	      0.00000000	     -4.23128580	    -10.35712323	    -31.67830155	     31.25664598	     90.00000001	      0.00000000	      0.00000000
      1.34000000	      8.56106423	      1.94879723	     -1.15685787	      0.98414797	      0.83299842	     -0.26393657	    -21.32399797	     -2.43467181	    -13.33691912	      3.44848982	      6.02483158	      0.06018750	     17.57837220	     10.41692105	     -7.50465762	     18.95708085	     -2.60052390	    -15.29905050	     33.88312385	      1.72058742	      0.59137207	     11.93034225	    -11.27994779	     -7.50465762	    -18.82241029	     -3.37932584	     11.11445995	      2.87147611	    -16.75996002	     -6.31204609	     36.86389047	     90.00000001	      0.00000000	      0.00000000	     -4.81072065	    -10.43126823	    -34.07132358	     30.75305436	     90.00000001	      0.00000000	      0.00000000
      1.35000000	      8.42926242	      1.76103041	     -1.49618966	      0.99895125	      0.83052418	     -0.26363292	    -22.34832922	     -2.31146938	    -13.87468666	      3.40254931	      6.06186809	      0.05938569	     17.97506392	     10.98110032	     -7.50434385	     19.14751094	     -2.67019955	    -16.04959886	     29.52967670	      2.10654093	      0.51539009	     12.26193245	     -9.41279845	     -7.50434385	    -18.60644461	     -3.35769690	     11.77482717	      3.14797294	    -17.22460459	     -5.72238724	     37.17300939	     90.00000001	      0.00000000	      0.00000000	     -5.40754785	    -10.51755865	    -36.43248861	     30.27048108	     90.00000001	      0.00000000	      0.00000000
      1.36000000	      8.34755138	      1.50223504	     -1.80466183	      1.01376096	      0.82795404	     -0.26336104	    -23.39110929	     -2.11519243	    -14.27209579	      3.42370716	      6.03620646	      0.05975496	     18.30398853	     11.43222871	     -7.50411833	     19.17520998	     -2.83210705	    -16.58347094	     25.30270147	      2.60655047	      0.44161545	     12.73264494	     -7.12366775	     -7.50411833	    -18.47371359	     -3.25984728	     12.35901808	      3.48217199	    -17.65479592	     -5.24725285	     37.46423489	     90.00000001	      0.00000000	      0.00000000	     -6.05207689	    -10.65647821	    -38.36530828	     29.83528141	     90.00000001	      0.00000000	      0.00000000
      1.37000000	      8.28305864	      1.20508709	     -2.15084434	      1.02893688	      0.82528746	     -0.26318105	    -24.42137406	     -1.94960450	    -14.48497252	      3.57870868	      5.99438351	      0.06246025	     18.57505655	     11.82990977	     -7.50392638	     19.08492235	     -3.06148881	    -16.93212242	     21.38880658	      3.15136956	      0.37330510	     13.07748795	     -4.60393005	     -7.50392638	    -18.30582508	     -3.11790737	     12.89970056	      3.79090625	    -18.07367098	     -4.79304589	     37.72343556	     90.00000001	      0.00000000	      0.00000000	     -6.77608833	    -10.78306094	    -40.36356087	     29.38886899	     90.00000001	      0.00000000	      0.00000000
      1.38000000	      8.26894903	      0.98405898	     -2.46235485	      1.04403793	      0.82267233	     -0.26322754	    -25.44977562	     -1.93110524	    -14.59024282	      3.84026821	      5.94991031	      0.06702532	     18.71015421	     12.19801840	     -7.50375194	     18.95376213	     -3.20436714	    -17.28870752	     17.93815709	      3.66102916	      0.31307990	     13.31378896	     -2.14026079	     -7.50375194	    -18.23251555	     -3.03907581	     13.33565988	      4.12421740	    -18.49225013	     -4.35761312	     38.00956308	     90.00000001	      0.00000000	      0.00000000	     -7.38014896	    -10.85350771	    -42.55167799	     28.96755844	     90.00000001	      0.00000000	      0.00000000
      1.39000000	      8.22857835	      0.73062318	     -2.80280806	      1.05930458	      0.82005404	     -0.26329111	    -26.36781540	     -1.96413374	    -14.62437045	      4.28570149	      5.90426669	      0.07479960	     18.80072156	     12.67736446	     -7.50335957	     18.94142765	     -3.43138774	    -17.61133836	     15.22846843	      4.08042866	      0.26578691	     13.40734968	      0.23170217	     -7.50335957	    -18.11197863	     -2.94039668	     13.71025767	      4.45022011	    -18.88916806	     -3.80635601	     38.28506821	     90.00000001	      0.00000000	      0.00000000	     -7.69681020	    -10.83158211	    -46.23942285	     28.29056393	     90.00000001	      0.00000000	      0.00000000
